<svg width="28" height="28" viewBox="0 0 28 28" fill="none" xmlns="http://www.w3.org/2000/svg">
<path d="M11.5827 2H6.13231V5.32363L11.5827 4.41523V2ZM23.5818 24.592V8.85664H14.7031V24.592H13.2969V5.55523L4.41819 7.03499V24.592H2V25.9982H26V24.592H23.5818ZM20.1098 10.8787H21.6035V12.2849H20.1098V10.8787ZM20.1098 14.307H21.6035V15.7133H20.1098V14.307ZM20.1098 17.7353H21.6035V19.1416H20.1098V17.7353ZM20.1098 21.1637H21.6035V22.5699H20.1098V21.1637ZM16.6815 10.8787H18.1752V12.2849H16.6815V10.8787ZM16.6815 14.307H18.1752V15.7133H16.6815V14.307ZM16.6815 17.7353H18.1752V19.1416H16.6815V17.7353ZM16.6815 21.1637H18.1752V22.5699H16.6815V21.1637ZM9.82484 7.45039H11.3185V8.85664H9.82484V7.45039ZM9.82484 10.8787H11.3185V12.2849H9.82484V10.8787ZM9.82484 14.307H11.3185V15.7133H9.82484V14.307ZM9.82484 17.7353H11.3185V19.1416H9.82484V17.7353ZM6.39655 10.8787H7.89022V12.2849H6.39655V10.8787ZM6.39655 14.307H7.89022V15.7133H6.39655V14.307ZM6.39655 17.7353H7.89022V19.1416H6.39655V17.7353ZM6.44023 21.1637H11.2748V24.592H9.86858V22.5699H7.84648V24.592H6.44023V21.1637Z" fill="white"/>
</svg>
