<svg width="28" height="28" viewBox="0 0 28 28" fill="none" xmlns="http://www.w3.org/2000/svg">
<path d="M13.3685 1L6.42117 12.3684H20.3159L13.3685 1ZM20.3159 26.2632C21.0624 26.2632 21.8015 26.1161 22.4912 25.8305C23.1808 25.5448 23.8074 25.1261 24.3352 24.5983C24.8631 24.0705 25.2818 23.4438 25.5674 22.7542C25.8531 22.0646 26.0001 21.3254 26.0001 20.5789C26.0001 19.8325 25.8531 19.0933 25.5674 18.4037C25.2818 17.7141 24.8631 17.0874 24.3352 16.5596C23.8074 16.0318 23.1808 15.6131 22.4912 15.3274C21.8015 15.0418 21.0624 14.8947 20.3159 14.8947C18.8084 14.8947 17.3626 15.4936 16.2966 16.5596C15.2306 17.6256 14.6317 19.0714 14.6317 20.5789C14.6317 22.0865 15.2306 23.5323 16.2966 24.5983C17.3626 25.6643 18.8084 26.2632 20.3159 26.2632ZM2.00011 15.5263H12.1054V25.6316H2.00011V15.5263Z" fill="white"/>
</svg>
