<svg width="24" height="26" viewBox="0 0 24 26" fill="none" xmlns="http://www.w3.org/2000/svg">
<path d="M11.3684 0L4.42105 11.3684H18.3158L11.3684 0ZM18.3158 25.2632C19.0623 25.2632 19.8014 25.1161 20.491 24.8305C21.1807 24.5448 21.8073 24.1261 22.3351 23.5983C22.863 23.0705 23.2817 22.4438 23.5673 21.7542C23.853 21.0646 24 20.3254 24 19.5789C24 18.8325 23.853 18.0933 23.5673 17.4037C23.2817 16.7141 22.863 16.0874 22.3351 15.5596C21.8073 15.0318 21.1807 14.6131 20.491 14.3274C19.8014 14.0418 19.0623 13.8947 18.3158 13.8947C16.8082 13.8947 15.3624 14.4936 14.2964 15.5596C13.2304 16.6256 12.6316 18.0714 12.6316 19.5789C12.6316 21.0865 13.2304 22.5323 14.2964 23.5983C15.3624 24.6643 16.8082 25.2632 18.3158 25.2632ZM0 14.5263H10.1053V24.6316H0V14.5263Z" fill="#0D80E1"/>
</svg>
