<svg width="24" height="27" viewBox="0 0 24 27" fill="none" xmlns="http://www.w3.org/2000/svg">
<path d="M17.879 17.7067V12.8674C17.879 12.0335 17.3929 11.3116 16.6898 10.9704V10.3147C16.6898 7.72434 14.5859 5.61694 11.9996 5.61694C9.41331 5.61694 7.30934 7.72434 7.30934 10.3147V10.9704C6.60619 11.3115 6.12012 12.0335 6.12012 12.8674V17.7067C6.12012 18.8679 7.06326 19.8126 8.2219 19.8126H15.7773C16.9359 19.8126 17.879 18.8679 17.879 17.7067ZM11.9996 7.14885C13.7426 7.14885 15.1604 8.56893 15.1604 10.3147V10.7615H8.83874V10.3147C8.83874 8.56893 10.2565 7.14885 11.9996 7.14885ZM11.2346 15.8168V14.7573C11.2346 14.3345 11.5773 13.9913 11.9996 13.9913C12.4219 13.9913 12.7645 14.3345 12.7645 14.7573V15.8168C12.7645 16.2402 12.4219 16.5828 11.9996 16.5828C11.5773 16.5828 11.2346 16.2402 11.2346 15.8168Z" fill="#0D80E1"/>
<path d="M10.2212 23.4091C7.81656 22.9972 5.61587 21.7396 4.02453 19.8678C2.41551 17.9752 1.52941 15.5618 1.52941 13.0723C1.52941 10.5827 2.41551 8.16936 4.02453 6.27684C5.23729 4.85038 6.80407 3.78116 8.54514 3.17054L8.27394 3.65273C8.06662 4.02131 8.19683 4.48839 8.5648 4.69601C8.92612 4.90175 9.39795 4.77654 9.60639 4.40465L10.7558 2.36123C10.9626 2.01369 10.8369 1.52767 10.4872 1.32464L8.47758 0.110246C8.1159 -0.108306 7.64591 0.00817029 7.42776 0.370416C7.20962 0.732661 7.32589 1.20342 7.68752 1.42192L8.13438 1.69194C6.10113 2.38605 4.27116 3.62398 2.86012 5.28365C1.01576 7.45304 0 10.2191 0 13.0723C0 15.9255 1.01576 18.6915 2.86012 20.8609C4.68345 23.0055 7.2061 24.4468 9.96338 24.919C10.3702 24.9918 10.7768 24.7124 10.8461 24.2932C10.9172 23.8763 10.6375 23.4804 10.2212 23.4091ZM21.1398 5.28365C19.3164 3.13903 16.7938 1.69781 14.0365 1.22553C13.6201 1.15429 13.225 1.43443 13.1538 1.85136C13.0827 2.26835 13.3624 2.66414 13.7786 2.73548C16.1832 3.14741 18.3839 4.40505 19.9753 6.27684C21.5843 8.16936 22.4705 10.5827 22.4705 13.0723C22.4705 15.5618 21.5844 17.9752 19.9753 19.8677C18.7626 21.2942 17.1958 22.3634 15.4547 22.974L15.726 22.4918C15.9333 22.1233 15.8031 21.6562 15.4351 21.4486C15.0671 21.241 14.6008 21.3713 14.3935 21.7399L13.2441 23.7833C13.0373 24.1312 13.1628 24.6168 13.5127 24.8199L15.5224 26.0343C15.8782 26.251 16.3527 26.1395 16.5722 25.7742C16.7903 25.4119 16.6741 24.9412 16.3124 24.7227L15.8656 24.4526C17.8988 23.7585 19.7288 22.5206 21.1399 20.8609C22.9842 18.6915 24 15.9255 24 13.0723C24 10.2191 22.9841 7.45304 21.1398 5.28365Z" fill="#0D80E1"/>
</svg>
