<svg width="28" height="26" viewBox="0 0 28 26" fill="none" xmlns="http://www.w3.org/2000/svg">
<path d="M2.15385 22.5334H25.8462V24H2.15385V22.5334ZM5.70769 10.0667C5.39351 10.0667 5.0922 10.1826 4.87004 10.3889C4.64788 10.5952 4.52308 10.875 4.52308 11.1667V21.0667H9.26154V11.1667C9.26154 10.875 9.13673 10.5952 8.91457 10.3889C8.69242 10.1826 8.3911 10.0667 8.07692 10.0667H5.70769ZM12.8154 15.9334C12.5012 15.9334 12.1999 16.0493 11.9777 16.2555C11.7556 16.4618 11.6308 16.7416 11.6308 17.0334V21.0667H16.3692V17.0334C16.3692 16.7416 16.2444 16.4618 16.0223 16.2555C15.8001 16.0493 15.4988 15.9334 15.1846 15.9334H12.8154ZM19.9231 18.1334C19.6089 18.1334 19.3076 18.2493 19.0854 18.4555C18.8633 18.6618 18.7385 18.9416 18.7385 19.2334V21.0667H23.4769V19.2334C23.4769 18.9416 23.3521 18.6618 23.13 18.4555C22.9078 18.2493 22.6065 18.1334 22.2923 18.1334H19.9231ZM11.8677 11.592C12.1302 12.4032 12.6075 13.1403 13.2559 13.736C13.9043 14.3317 14.7032 14.767 15.5795 15.002C16.0939 15.134 16.6253 15.2006 17.159 15.2C18.6251 15.2 20.0313 14.6592 21.068 13.6965C22.1047 12.7338 22.6872 11.4281 22.6872 10.0667C22.6872 9.8722 22.604 9.68567 22.4559 9.54815C22.3078 9.41062 22.1069 9.33336 21.8974 9.33336H19.1333C18.8192 9.33336 18.5178 9.21747 18.2957 9.01118C18.0735 8.80489 17.9487 8.5251 17.9487 8.23336V5.66669C17.9487 5.4722 17.8655 5.28567 17.7174 5.14815C17.5693 5.01062 17.3684 4.93336 17.159 4.93336C16.3344 4.93185 15.5199 5.10163 14.7752 5.43027C14.0305 5.75891 13.3743 6.23809 12.8549 6.83269C12.2858 7.49161 11.8985 8.26947 11.7265 9.09883C11.5545 9.92819 11.6029 10.784 11.8677 11.592Z" fill="url(#paint0_linear_1667_4874)"/>
<path d="M20.3179 7.86667H25.0564C25.2659 7.86667 25.4667 7.7894 25.6148 7.65188C25.763 7.51435 25.8462 7.32783 25.8462 7.13333C25.8462 5.77189 25.2637 4.46621 24.227 3.50352C23.1902 2.54083 21.7841 2 20.3179 2C20.1085 2 19.9076 2.07726 19.7595 2.21479C19.6114 2.35232 19.5282 2.53884 19.5282 2.73333V6.774C19.5282 7.53667 19.8836 7.86667 20.3179 7.86667ZM2.15385 2H13.2103V3.46667H2.15385V2ZM2.15385 4.93333H9.26154V6.4H2.15385V4.93333Z" fill="url(#paint1_linear_1667_4874)"/>
<defs>
<linearGradient id="paint0_linear_1667_4874" x1="14" y1="4.93335" x2="14" y2="24" gradientUnits="userSpaceOnUse">
<stop stop-color="#0D80E1"/>
<stop offset="1" stop-color="#085799"/>
</linearGradient>
<linearGradient id="paint1_linear_1667_4874" x1="14" y1="2" x2="14" y2="7.86667" gradientUnits="userSpaceOnUse">
<stop stop-color="#0D80E1"/>
<stop offset="1" stop-color="#085799"/>
</linearGradient>
</defs>
</svg>
