<svg width="24" height="22" viewBox="0 0 24 22" fill="none" xmlns="http://www.w3.org/2000/svg">
<path d="M0 20.5331H23.6923V21.9998H0V20.5331ZM3.55385 8.06645C3.23967 8.06645 2.93835 8.18234 2.7162 8.38863C2.49404 8.59492 2.36923 8.87471 2.36923 9.16645V19.0664H7.10769V9.16645C7.10769 8.87471 6.98289 8.59492 6.76073 8.38863C6.53857 8.18234 6.23726 8.06645 5.92308 8.06645H3.55385ZM10.6615 13.9331C10.3474 13.9331 10.046 14.049 9.82389 14.2553C9.60173 14.4616 9.47692 14.7414 9.47692 15.0331V19.0664H14.2154V15.0331C14.2154 14.7414 14.0906 14.4616 13.8684 14.2553C13.6463 14.049 13.3449 13.9331 13.0308 13.9331H10.6615ZM17.7692 16.1331C17.4551 16.1331 17.1537 16.249 16.9316 16.4553C16.7094 16.6616 16.5846 16.9414 16.5846 17.2331V19.0664H21.3231V17.2331C21.3231 16.9414 21.1983 16.6616 20.9761 16.4553C20.754 16.249 20.4526 16.1331 20.1385 16.1331H17.7692ZM9.71385 9.59178C9.97634 10.4029 10.4536 11.1401 11.102 11.7358C11.7505 12.3315 12.5493 12.7667 13.4256 13.0018C13.9401 13.1337 14.4714 13.2003 15.0051 13.1998C16.4713 13.1998 17.8774 12.6589 18.9142 11.6963C19.9509 10.7336 20.5333 9.42789 20.5333 8.06645C20.5333 7.87196 20.4501 7.68543 20.302 7.5479C20.1539 7.41038 19.953 7.33312 19.7436 7.33312H16.9795C16.6653 7.33312 16.364 7.21722 16.1418 7.01093C15.9197 6.80464 15.7949 6.52485 15.7949 6.23312V3.66645C15.7949 3.47196 15.7117 3.28543 15.5636 3.1479C15.4155 3.01038 15.2146 2.93312 15.0051 2.93312C14.1806 2.9316 13.3661 3.10139 12.6214 3.43003C11.8766 3.75867 11.2205 4.23784 10.701 4.83245C10.132 5.49136 9.74468 6.26923 9.57266 7.09859C9.40063 7.92795 9.4491 8.78375 9.71385 9.59178Z" fill="white"/>
<path d="M18.1641 5.86667H22.9026C23.112 5.86667 23.3129 5.7894 23.461 5.65188C23.6091 5.51435 23.6923 5.32783 23.6923 5.13333C23.6923 3.77189 23.1099 2.46621 22.0731 1.50352C21.0364 0.540832 19.6303 0 18.1641 0C17.9546 0 17.7538 0.0772617 17.6057 0.214788C17.4576 0.352315 17.3744 0.538841 17.3744 0.733333V4.774C17.3744 5.53667 17.7297 5.86667 18.1641 5.86667ZM0 0H11.0564V1.46667H0V0ZM0 2.93333H7.10769V4.4H0V2.93333Z" fill="white"/>
</svg>
