<svg width="24" height="21" viewBox="0 0 24 21" fill="none" xmlns="http://www.w3.org/2000/svg">
<path d="M17.5 0H5.83333C4.28681 0.0018525 2.80415 0.617029 1.71059 1.71059C0.617029 2.80415 0.0018526 4.28681 1.02608e-07 5.83333V19.8263C-8.63215e-05 20.0324 0.0544235 20.2349 0.157984 20.4131C0.261544 20.5912 0.410457 20.7388 0.589573 20.8408C0.768689 20.9427 0.971613 20.9954 1.1777 20.9934C1.38379 20.9915 1.58568 20.935 1.76283 20.8297L5.39933 18.6667H17.5C19.0465 18.6648 20.5292 18.0496 21.6227 16.9561C22.7163 15.8625 23.3315 14.3799 23.3333 12.8333V5.83333C23.3315 4.28681 22.7163 2.80415 21.6227 1.71059C20.5292 0.617029 19.0465 0.0018525 17.5 0ZM11.6667 15.1667C11.4359 15.1667 11.2104 15.0982 11.0185 14.97C10.8266 14.8419 10.6771 14.6596 10.5888 14.4465C10.5005 14.2333 10.4774 13.9987 10.5224 13.7724C10.5674 13.5461 10.6785 13.3382 10.8417 13.175C11.0049 13.0119 11.2128 12.9008 11.4391 12.8558C11.6654 12.8107 11.9 12.8338 12.1131 12.9221C12.3263 13.0104 12.5085 13.16 12.6367 13.3518C12.7649 13.5437 12.8333 13.7693 12.8333 14C12.8333 14.3094 12.7104 14.6062 12.4916 14.825C12.2728 15.0438 11.9761 15.1667 11.6667 15.1667ZM13.3233 10.0847C13.1648 10.1859 13.0359 10.3273 12.9499 10.4945C12.8638 10.6618 12.8236 10.8488 12.8333 11.0367C12.8343 11.3483 12.7123 11.6478 12.4939 11.8701C12.2755 12.0925 11.9783 12.2197 11.6667 12.2243C11.5145 12.2268 11.3634 12.199 11.2222 12.1426C11.0809 12.0861 10.9522 12.0022 10.8436 11.8956C10.7351 11.789 10.6488 11.6619 10.5898 11.5216C10.5308 11.3814 10.5003 11.2308 10.5 11.0787C10.4822 10.4621 10.6328 9.85242 10.9356 9.31508C11.2383 8.77774 11.6819 8.3331 12.2185 8.029C12.4002 7.93143 12.5529 7.78742 12.6608 7.61165C12.7688 7.43588 12.8282 7.23463 12.833 7.02841C12.8378 6.82219 12.7879 6.61838 12.6883 6.43774C12.5887 6.25711 12.443 6.10612 12.266 6.00015C12.089 5.89418 11.8871 5.83703 11.6809 5.83451C11.4746 5.832 11.2714 5.88422 11.0919 5.98585C10.9124 6.08748 10.763 6.23488 10.659 6.41304C10.5551 6.59119 10.5002 6.79373 10.5 7C10.5 7.30942 10.3771 7.60617 10.1583 7.82496C9.9395 8.04375 9.64275 8.16667 9.33333 8.16667C9.02391 8.16667 8.72717 8.04375 8.50838 7.82496C8.28958 7.60617 8.16667 7.30942 8.16667 7C8.16695 6.38116 8.3313 5.77346 8.64297 5.23883C8.95465 4.70421 9.4025 4.26178 9.94088 3.95664C10.4793 3.6515 11.0889 3.49456 11.7077 3.50182C12.3265 3.50907 12.9323 3.68027 13.4634 3.99795C13.9945 4.31564 14.4318 4.76845 14.7309 5.31024C15.0299 5.85203 15.18 6.46342 15.1657 7.0821C15.1515 7.70077 14.9735 8.30462 14.6498 8.83208C14.3262 9.35953 13.8685 9.79175 13.3233 10.0847Z" fill="#0D80E1"/>
</svg>
