<svg width="26" height="26" viewBox="0 0 26 26" fill="none" xmlns="http://www.w3.org/2000/svg">
<path d="M11.0334 25.5074C11.6207 26.0581 12.4803 26.1564 13.1744 25.7536L18.6509 22.576C18.9173 22.4215 19.0961 22.1698 19.1544 21.8674C19.2127 21.565 19.1403 21.2648 18.9504 21.0223L18.3288 20.2284C17.7635 20.6681 17.054 20.931 16.284 20.931H14.8854L13.7166 21.864C13.2557 22.2553 12.6653 22.4603 12.0611 22.4389C11.4518 22.4187 10.8725 22.1699 10.4383 21.742C9.97278 21.2841 9.71461 20.6723 9.71141 20.0192C9.70827 19.3662 9.9605 18.7518 10.4216 18.2894L10.4575 18.2557L13.3835 15.6782H3.42627V20.132L5.26298 20.1336L11.0334 25.5074Z" fill="#0D80E1"/>
<path d="M15.6881 15.6783L11.4855 19.3802C11.3228 19.55 11.2328 19.7767 11.2346 20.0118C11.2349 20.1319 11.259 20.2506 11.3057 20.3612C11.3523 20.4718 11.4206 20.572 11.5064 20.6559C11.8459 20.9898 12.3745 21.0079 12.736 20.698L12.7565 20.6811L14.3517 19.4076H16.2838C17.2841 19.4076 18.0979 18.5939 18.0979 17.5935V17.2443H19.6214V17.5935C19.6214 18.0983 19.5081 18.577 19.3066 19.0063L20.1497 20.0832C20.1759 20.1168 20.2012 20.151 20.2257 20.1858H22.5739V15.6783H15.6881ZM0 15.6783H1.90272V21.6022H0V15.6783ZM24.0973 15.6783H26V21.6022H24.0973V15.6783ZM7.52126 7.52777V14.1548H10.6057V9.4209H15.3943V14.1548H18.4787V7.52534L13.0336 4.65381L7.52126 7.52777Z" fill="#0D80E1"/>
<path d="M12.1289 10.9446H13.8706V14.1551H12.1289V10.9446ZM9.84231 2.01866V0H7.521V5.80993L13.0374 2.93389L18.4785 5.80328V3.22146L13.0333 0.349984L9.84231 2.01866Z" fill="#0D80E1"/>
</svg>
