<svg width="28" height="28" viewBox="0 0 28 28" fill="none" xmlns="http://www.w3.org/2000/svg">
<path d="M12.0333 26.5077C12.6206 27.0584 13.4801 27.1566 14.1743 26.7539L19.6508 23.5763C19.9172 23.4217 20.096 23.17 20.1543 22.8676C20.2126 22.5652 20.1402 22.2651 19.9503 22.0225L19.3287 21.2286C18.7634 21.6684 18.0539 21.9312 17.2839 21.9312H15.8852L14.7165 22.8643C14.2556 23.2555 13.6652 23.4605 13.0609 23.4392C12.4517 23.4189 11.8724 23.1701 11.4382 22.7423C10.9727 22.2844 10.7145 21.6725 10.7113 21.0195C10.7081 20.3664 10.9604 19.7521 11.4215 19.2897L11.4574 19.256L14.3834 16.6785H4.42615V21.1322L6.26285 21.1338L12.0333 26.5077Z" fill="white"/>
<path d="M16.6881 16.6785L12.4855 20.3805C12.3228 20.5503 12.2328 20.7769 12.2346 21.0121C12.2349 21.1321 12.259 21.2509 12.3057 21.3615C12.3523 21.4721 12.4206 21.5722 12.5064 21.6561C12.8459 21.9901 13.3745 22.0081 13.736 21.6983L13.7565 21.6813L15.3517 20.4079H17.2838C18.2841 20.4079 19.0979 19.5941 19.0979 18.5938V18.2446H20.6214V18.5938C20.6214 19.0985 20.5081 19.5772 20.3066 20.0066L21.1497 21.0835C21.1759 21.117 21.2012 21.1512 21.2257 21.186H23.5739V16.6785H16.6881ZM1 16.6785H2.90272V22.6024H1V16.6785ZM25.0973 16.6785H27V22.6024H25.0973V16.6785ZM8.52126 8.52802V15.1551H11.6057V10.4211H16.3943V15.1551H19.4787V8.52558L14.0336 5.65405L8.52126 8.52802Z" fill="white"/>
<path d="M13.1291 11.9446H14.8708V15.1551H13.1291V11.9446ZM10.8425 3.01866V1H8.52118V6.80993L14.0375 3.93389L19.4787 6.80328V4.22146L14.0335 1.34998L10.8425 3.01866Z" fill="white"/>
</svg>
