<svg width="24" height="24" viewBox="0 0 24 24" fill="none" xmlns="http://www.w3.org/2000/svg">
<path d="M14.8076 12.8332C14.2617 12.8332 13.8205 13.2756 13.8205 13.8203V17.7691C13.8205 18.313 13.3781 18.7563 12.8332 18.7563H9.87166V3.94867C9.87166 3.10561 9.33465 2.35242 8.52718 2.07204L8.23491 1.97427H12.8332C13.3781 1.97427 13.8205 2.41748 13.8205 2.96156V5.92308C13.8205 6.46786 14.2617 6.91019 14.8076 6.91019C15.3535 6.91019 15.7947 6.46786 15.7947 5.92308V2.96156C15.7947 1.3288 14.4659 4.62737e-05 12.8332 4.62737e-05H2.22114C2.18356 4.62737e-05 2.1521 0.0168436 2.11559 0.0217486C2.06802 0.0177691 2.02267 0 1.97441 0C0.88554 4.62737e-05 0 0.885447 0 1.97431V19.7434C0 20.5865 0.537006 21.3397 1.34448 21.62L7.28533 23.6004C7.48671 23.6625 7.68699 23.6922 7.89739 23.6922C8.98626 23.6922 9.87161 22.8066 9.87161 21.7178V20.7307H12.8331C14.4659 20.7307 15.7946 19.4019 15.7946 17.7691V13.8203C15.7946 13.2756 15.3534 12.8332 14.8075 12.8332H14.8076Z" fill="#0D80E1"/>
<path d="M23.4028 9.17375L19.4539 5.22513C19.3159 5.08697 19.14 4.99286 18.9485 4.9547C18.757 4.91654 18.5585 4.93604 18.3781 5.01074C18.0099 5.16386 17.7689 5.5241 17.7689 5.92303V8.88454H13.8203C13.2753 8.88454 12.833 9.32669 12.833 9.87165C12.833 10.4166 13.2753 10.8588 13.8203 10.8588H17.7689V13.8203C17.7689 14.2192 18.0099 14.5794 18.3781 14.7326C18.5585 14.8073 18.757 14.8268 18.9485 14.7886C19.14 14.7505 19.3159 14.6564 19.4539 14.5183L23.4028 10.5696C23.7887 10.1836 23.7887 9.55968 23.4028 9.17375Z" fill="#0D80E1"/>
</svg>
