<svg width="24" height="24" viewBox="0 0 24 24" fill="none" xmlns="http://www.w3.org/2000/svg">
<path d="M14.8076 12.8332C14.2617 12.8332 13.8205 13.2756 13.8205 13.8203V17.7691C13.8205 18.313 13.3781 18.7563 12.8332 18.7563H9.87166V3.94867C9.87166 3.10561 9.33465 2.35242 8.52718 2.07204L8.23491 1.97427H12.8332C13.3781 1.97427 13.8205 2.41748 13.8205 2.96156V5.92308C13.8205 6.46786 14.2617 6.91019 14.8076 6.91019C15.3535 6.91019 15.7947 6.46786 15.7947 5.92308V2.96156C15.7947 1.3288 14.4659 4.62737e-05 12.8332 4.62737e-05H2.22114C2.18356 4.62737e-05 2.1521 0.0168436 2.11559 0.0217486C2.06802 0.0177691 2.02267 0 1.97441 0C0.88554 4.62737e-05 0 0.885447 0 1.97431V19.7434C0 20.5865 0.537006 21.3397 1.34448 21.62L7.28533 23.6004C7.48671 23.6625 7.68699 23.6922 7.89739 23.6922C8.98626 23.6922 9.87161 22.8066 9.87161 21.7178V20.7307H12.8331C14.4659 20.7307 15.7946 19.4019 15.7946 17.7691V13.8203C15.7946 13.2756 15.3534 12.8332 14.8075 12.8332H14.8076Z" fill="white"/>
<path d="M23.4028 9.17388L19.454 5.22525C19.316 5.0871 19.1401 4.99298 18.9486 4.95482C18.7571 4.91666 18.5586 4.93616 18.3781 5.01086C18.0099 5.16398 17.769 5.52422 17.769 5.92315V8.88466H13.8204C13.2754 8.88466 12.8331 9.32681 12.8331 9.87178C12.8331 10.4167 13.2754 10.8589 13.8204 10.8589H17.769V13.8204C17.769 14.2193 18.0099 14.5796 18.3781 14.7327C18.5586 14.8074 18.7571 14.8269 18.9486 14.7887C19.1401 14.7506 19.316 14.6565 19.454 14.5184L23.4028 10.5697C23.7887 10.1838 23.7887 9.5598 23.4028 9.17388Z" fill="white"/>
</svg>
