<svg width="28" height="28" viewBox="0 0 28 28" fill="none" xmlns="http://www.w3.org/2000/svg">
<path d="M25.8714 21.7458V25.4827C25.8714 25.5858 25.8305 25.6846 25.7576 25.7575C25.6847 25.8304 25.5858 25.8714 25.4827 25.8714H21.7459C21.6428 25.8714 21.5439 25.8304 21.4711 25.7575C21.3982 25.6846 21.3572 25.5858 21.3572 25.4827C21.3572 25.3796 21.3982 25.2808 21.4711 25.2079C21.5439 25.135 21.6428 25.094 21.7459 25.094H25.0941V21.7458C25.0941 21.6427 25.135 21.5439 25.2079 21.471C25.2808 21.3981 25.3797 21.3572 25.4827 21.3572C25.5858 21.3572 25.6847 21.3981 25.7576 21.471C25.8305 21.5439 25.8714 21.6427 25.8714 21.7458ZM6.78868 15.5798H3.28915C3.97854 20.2941 7.70583 24.0215 12.4202 24.7108V21.2113C9.61184 20.5989 7.40117 18.388 6.78868 15.5798ZM6.25417 25.094H2.90598V21.7458C2.90598 21.6427 2.86503 21.5439 2.79214 21.471C2.71925 21.3981 2.62039 21.3572 2.51731 21.3572C2.41423 21.3572 2.31537 21.3981 2.24248 21.471C2.1696 21.5439 2.12865 21.6427 2.12865 21.7458V25.4827C2.12865 25.5858 2.1696 25.6846 2.24248 25.7575C2.31537 25.8304 2.41423 25.8714 2.51731 25.8714H6.25417C6.35725 25.8714 6.45611 25.8304 6.529 25.7575C6.60189 25.6846 6.64283 25.5858 6.64283 25.4827C6.64283 25.3796 6.60189 25.2808 6.529 25.2079C6.45611 25.135 6.35725 25.094 6.25417 25.094ZM9.39317 12.482C9.39317 13.2016 9.97655 13.785 10.6962 13.785C11.4159 13.785 11.9993 13.2016 11.9993 12.482C11.9993 11.7623 11.4159 11.1789 10.6962 11.1789C9.97655 11.1789 9.39317 11.7623 9.39317 12.482ZM10.6962 14.2709C9.4656 14.2709 8.44264 15.2052 8.3018 16.3996C8.29746 16.435 8.30072 16.471 8.31136 16.5051C8.32201 16.5392 8.33979 16.5706 8.36353 16.5973C8.38726 16.624 8.41641 16.6454 8.44903 16.6599C8.48166 16.6745 8.51701 16.6819 8.55273 16.6818H12.8397C12.8754 16.6819 12.9108 16.6745 12.9434 16.6599C12.976 16.6454 13.0051 16.624 13.0289 16.5973C13.0526 16.5706 13.0704 16.5392 13.081 16.5051C13.0917 16.471 13.095 16.435 13.0906 16.3996C12.9497 15.2052 11.9268 14.2709 10.6962 14.2709ZM3.28915 12.4202H6.78868C7.40117 9.61198 9.61184 7.40117 12.4202 6.78873V3.28915C7.70583 3.97849 3.97859 7.70593 3.28915 12.4202ZM25.1975 13.1975H21.0098C20.5684 13.1975 20.2073 13.5586 20.2073 14C20.2073 14.4414 20.5684 14.8025 21.0098 14.8025H25.1975C25.6388 14.8025 26 14.4414 26 14C26 13.5586 25.6388 13.1975 25.1975 13.1975ZM2.80259 14.8025H6.9902C7.43158 14.8025 7.7927 14.4414 7.7927 14C7.7927 13.5587 7.43158 13.1975 6.9902 13.1975H2.80259C2.36117 13.1975 2 13.5586 2 14C2 14.4414 2.36117 14.8025 2.80259 14.8025ZM2.51731 6.64283C2.62039 6.64283 2.71925 6.60189 2.79214 6.529C2.86503 6.45611 2.90598 6.35725 2.90598 6.25417V2.90598H6.25417C6.35725 2.90598 6.45611 2.86503 6.529 2.79214C6.60189 2.71925 6.64283 2.62039 6.64283 2.51731C6.64283 2.41423 6.60189 2.31537 6.529 2.24248C6.45611 2.1696 6.35725 2.12865 6.25417 2.12865H2.51731C2.41423 2.12865 2.31537 2.1696 2.24248 2.24248C2.1696 2.31537 2.12865 2.41423 2.12865 2.51731V6.25422C2.12866 6.35729 2.16961 6.45614 2.2425 6.52901C2.31539 6.60189 2.41424 6.64283 2.51731 6.64283ZM21.7458 2.90598H25.094V6.25422C25.094 6.3573 25.135 6.45616 25.2079 6.52905C25.2808 6.60193 25.3796 6.64288 25.4827 6.64288C25.5858 6.64288 25.6846 6.60193 25.7575 6.52905C25.8304 6.45616 25.8714 6.3573 25.8714 6.25422V2.51731C25.8714 2.41423 25.8304 2.31537 25.7575 2.24248C25.6846 2.1696 25.5858 2.12865 25.4827 2.12865H21.7458C21.6427 2.12865 21.5439 2.1696 21.471 2.24248C21.3981 2.31537 21.3572 2.41423 21.3572 2.51731C21.3572 2.62039 21.3981 2.71925 21.471 2.79214C21.5439 2.86503 21.6427 2.90598 21.7458 2.90598ZM14 7.7927C14.4414 7.7927 14.8025 7.43158 14.8025 6.99015V2.80254C14.8025 2.36112 14.4414 2 14 2C13.5586 2 13.1975 2.36112 13.1975 2.80254V6.9902C13.1975 7.43158 13.5586 7.7927 14 7.7927ZM16.0007 12.482C16.0007 13.2016 16.5841 13.785 17.3038 13.785C18.0234 13.785 18.6068 13.2016 18.6068 12.482C18.6068 11.7623 18.0234 11.1789 17.3038 11.1789C16.5841 11.1789 16.0007 11.7623 16.0007 12.482ZM21.2113 12.4202H24.7108C24.0215 7.70593 20.2942 3.97854 15.5798 3.28915V6.78873C18.3882 7.40112 20.5988 9.61194 21.2113 12.4202ZM12.9101 14.3918H15.0899C15.2938 14.1948 15.5229 14.0256 15.7711 13.8886C15.4311 13.5182 15.2234 13.0243 15.2234 12.482C15.2234 12.4277 15.2255 12.3738 15.2296 12.3205C14.869 12.1051 14.4483 11.9809 14 11.9809C13.5516 11.9809 13.1309 12.1051 12.7703 12.3205C12.7743 12.3738 12.7765 12.4277 12.7765 12.482C12.7765 13.0243 12.5688 13.5182 12.2288 13.8885C12.4771 14.0255 12.7062 14.1948 12.9101 14.3918ZM14 11.495C14.7196 11.495 15.303 10.9116 15.303 10.192C15.303 9.47231 14.7196 8.88897 14 8.88897C13.2803 8.88897 12.697 9.47236 12.697 10.192C12.697 10.9117 13.2803 11.495 14 11.495ZM14 20.2073C13.5586 20.2073 13.1975 20.5684 13.1975 21.0098V25.1975C13.1975 25.6389 13.5586 26 14 26C14.4414 26 14.8025 25.6389 14.8025 25.1975V21.0098C14.8025 20.5684 14.4414 20.2073 14 20.2073ZM24.7108 15.5798H21.2113C20.5988 18.388 18.3882 20.5988 15.5798 21.2113V24.7108C20.2942 24.0215 24.0215 20.2941 24.7108 15.5798ZM19.6982 16.3996C19.5574 15.2052 18.5344 14.2709 17.3038 14.2709C16.0732 14.2709 15.0503 15.2052 14.9094 16.3996C14.905 16.435 14.9083 16.471 14.9189 16.5051C14.9296 16.5392 14.9474 16.5706 14.9711 16.5973C14.9948 16.624 15.024 16.6454 15.0566 16.6599C15.0892 16.6745 15.1246 16.6819 15.1603 16.6818H19.4473C19.483 16.6819 19.5183 16.6745 19.551 16.6599C19.5836 16.6454 19.6127 16.624 19.6365 16.5973C19.6602 16.5706 19.678 16.5392 19.6886 16.5051C19.6993 16.471 19.7025 16.435 19.6982 16.3996Z" fill="white"/>
</svg>
