<svg width="24" height="24" viewBox="0 0 24 24" fill="none" xmlns="http://www.w3.org/2000/svg">
<path d="M23.8714 19.7458V23.4827C23.8714 23.5858 23.8305 23.6846 23.7576 23.7575C23.6847 23.8304 23.5858 23.8714 23.4827 23.8714H19.7459C19.6428 23.8714 19.5439 23.8304 19.4711 23.7575C19.3982 23.6846 19.3572 23.5858 19.3572 23.4827C19.3572 23.3796 19.3982 23.2808 19.4711 23.2079C19.5439 23.135 19.6428 23.094 19.7459 23.094H23.0941V19.7458C23.0941 19.6427 23.135 19.5439 23.2079 19.471C23.2808 19.3981 23.3797 19.3572 23.4827 19.3572C23.5858 19.3572 23.6847 19.3981 23.7576 19.471C23.8305 19.5439 23.8714 19.6427 23.8714 19.7458ZM4.78868 13.5798H1.28915C1.97854 18.2941 5.70583 22.0215 10.4202 22.7108V19.2113C7.61184 18.5989 5.40117 16.388 4.78868 13.5798ZM4.25417 23.094H0.905976V19.7458C0.905976 19.6427 0.865027 19.5439 0.792139 19.471C0.71925 19.3981 0.620392 19.3572 0.517312 19.3572C0.414232 19.3572 0.315373 19.3981 0.242485 19.471C0.169596 19.5439 0.128648 19.6427 0.128648 19.7458V23.4827C0.128648 23.5858 0.169596 23.6846 0.242485 23.7575C0.315373 23.8304 0.414232 23.8714 0.517312 23.8714H4.25417C4.35725 23.8714 4.45611 23.8304 4.529 23.7575C4.60189 23.6846 4.64283 23.5858 4.64283 23.4827C4.64283 23.3796 4.60189 23.2808 4.529 23.2079C4.45611 23.135 4.35725 23.094 4.25417 23.094ZM7.39317 10.482C7.39317 11.2016 7.97655 11.785 8.69621 11.785C9.41587 11.785 9.99926 11.2016 9.99926 10.482C9.99926 9.76232 9.41587 9.17893 8.69621 9.17893C7.97655 9.17893 7.39317 9.76232 7.39317 10.482ZM8.69621 12.2709C7.4656 12.2709 6.44264 13.2052 6.3018 14.3996C6.29746 14.435 6.30072 14.471 6.31136 14.5051C6.32201 14.5392 6.33979 14.5706 6.36353 14.5973C6.38726 14.624 6.41641 14.6454 6.44903 14.6599C6.48166 14.6745 6.51701 14.6819 6.55273 14.6818H10.8397C10.8754 14.6819 10.9108 14.6745 10.9434 14.6599C10.976 14.6454 11.0051 14.624 11.0289 14.5973C11.0526 14.5706 11.0704 14.5392 11.081 14.5051C11.0917 14.471 11.095 14.435 11.0906 14.3996C10.9497 13.2052 9.92682 12.2709 8.69621 12.2709ZM1.28915 10.4202H4.78868C5.40117 7.61198 7.61184 5.40117 10.4202 4.78873V1.28915C5.70583 1.97849 1.97859 5.70593 1.28915 10.4202ZM23.1975 11.1975H19.0098C18.5684 11.1975 18.2073 11.5586 18.2073 12C18.2073 12.4414 18.5684 12.8025 19.0098 12.8025H23.1975C23.6388 12.8025 24 12.4414 24 12C24 11.5586 23.6388 11.1975 23.1975 11.1975ZM0.802591 12.8025H4.9902C5.43158 12.8025 5.7927 12.4414 5.7927 12C5.7927 11.5587 5.43158 11.1975 4.9902 11.1975H0.802591C0.361166 11.1975 0 11.5586 0 12C0 12.4414 0.361166 12.8025 0.802591 12.8025ZM0.517312 4.64283C0.620392 4.64283 0.71925 4.60189 0.792139 4.529C0.865027 4.45611 0.905976 4.35725 0.905976 4.25417V0.905976H4.25417C4.35725 0.905976 4.45611 0.865027 4.529 0.792139C4.60189 0.71925 4.64283 0.620392 4.64283 0.517312C4.64283 0.414232 4.60189 0.315373 4.529 0.242485C4.45611 0.169596 4.35725 0.128648 4.25417 0.128648H0.517312C0.414232 0.128648 0.315373 0.169596 0.242485 0.242485C0.169596 0.315373 0.128648 0.414232 0.128648 0.517312V4.25422C0.128661 4.35729 0.169615 4.45614 0.242502 4.52901C0.315389 4.60189 0.41424 4.64283 0.517312 4.64283ZM19.7458 0.905976H23.094V4.25422C23.094 4.3573 23.135 4.45616 23.2079 4.52905C23.2808 4.60193 23.3796 4.64288 23.4827 4.64288C23.5858 4.64288 23.6846 4.60193 23.7575 4.52905C23.8304 4.45616 23.8714 4.3573 23.8714 4.25422V0.517312C23.8714 0.414232 23.8304 0.315373 23.7575 0.242485C23.6846 0.169596 23.5858 0.128648 23.4827 0.128648H19.7458C19.6427 0.128648 19.5439 0.169596 19.471 0.242485C19.3981 0.315373 19.3572 0.414232 19.3572 0.517312C19.3572 0.620392 19.3981 0.71925 19.471 0.792139C19.5439 0.865027 19.6427 0.905976 19.7458 0.905976ZM12 5.7927C12.4414 5.7927 12.8025 5.43158 12.8025 4.99015V0.802543C12.8025 0.361117 12.4414 0 12 0C11.5586 0 11.1975 0.361117 11.1975 0.802543V4.9902C11.1975 5.43158 11.5586 5.7927 12 5.7927ZM14.0007 10.482C14.0007 11.2016 14.5841 11.785 15.3038 11.785C16.0234 11.785 16.6068 11.2016 16.6068 10.482C16.6068 9.76232 16.0234 9.17893 15.3038 9.17893C14.5841 9.17893 14.0007 9.76232 14.0007 10.482ZM19.2113 10.4202H22.7108C22.0215 5.70593 18.2942 1.97854 13.5798 1.28915V4.78873C16.3882 5.40112 18.5988 7.61194 19.2113 10.4202ZM10.9101 12.3918H13.0899C13.2938 12.1948 13.5229 12.0256 13.7711 11.8886C13.4311 11.5182 13.2234 11.0243 13.2234 10.482C13.2234 10.4277 13.2255 10.3738 13.2296 10.3205C12.869 10.1051 12.4483 9.98089 12 9.98089C11.5516 9.98089 11.1309 10.1051 10.7703 10.3205C10.7743 10.3738 10.7765 10.4277 10.7765 10.482C10.7765 11.0243 10.5688 11.5182 10.2288 11.8885C10.4771 12.0255 10.7062 12.1948 10.9101 12.3918ZM12 9.49501C12.7196 9.49501 13.303 8.91163 13.303 8.19197C13.303 7.47231 12.7196 6.88897 12 6.88897C11.2803 6.88897 10.697 7.47236 10.697 8.19202C10.697 8.91168 11.2803 9.49501 12 9.49501ZM12 18.2073C11.5586 18.2073 11.1975 18.5684 11.1975 19.0098V23.1975C11.1975 23.6389 11.5586 24 12 24C12.4414 24 12.8025 23.6389 12.8025 23.1975V19.0098C12.8025 18.5684 12.4414 18.2073 12 18.2073ZM22.7108 13.5798H19.2113C18.5988 16.388 16.3882 18.5988 13.5798 19.2113V22.7108C18.2942 22.0215 22.0215 18.2941 22.7108 13.5798ZM17.6982 14.3996C17.5574 13.2052 16.5344 12.2709 15.3038 12.2709C14.0732 12.2709 13.0503 13.2052 12.9094 14.3996C12.905 14.435 12.9083 14.471 12.9189 14.5051C12.9296 14.5392 12.9474 14.5706 12.9711 14.5973C12.9948 14.624 13.024 14.6454 13.0566 14.6599C13.0892 14.6745 13.1246 14.6819 13.1603 14.6818H17.4473C17.483 14.6819 17.5183 14.6745 17.551 14.6599C17.5836 14.6454 17.6127 14.624 17.6365 14.5973C17.6602 14.5706 17.678 14.5392 17.6886 14.5051C17.6993 14.471 17.7025 14.435 17.6982 14.3996Z" fill="#0D80E1"/>
</svg>
