<svg width="28" height="28" viewBox="0 0 28 28" fill="none" xmlns="http://www.w3.org/2000/svg">
<path d="M11.1548 18.912V22.9706C11.1555 23.1086 11.1995 23.2428 11.2807 23.3543C11.3619 23.4658 11.4761 23.5489 11.6072 23.5919C11.7383 23.6349 11.8795 23.6355 12.011 23.5938C12.1425 23.552 12.2574 23.4699 12.3397 23.3592L14.7138 20.1284L11.1548 18.912ZM24.2241 3.6217C24.1255 3.55148 24.0094 3.5099 23.8886 3.50156C23.7679 3.49322 23.6472 3.51845 23.5398 3.57445L3.8505 13.8566C3.73722 13.9165 3.64388 14.0082 3.58193 14.1203C3.51999 14.2325 3.49214 14.3603 3.50181 14.4881C3.51147 14.6159 3.55823 14.738 3.63634 14.8396C3.71445 14.9412 3.82051 15.0177 3.94151 15.0599L9.41514 16.9308L21.0721 6.96364L12.0518 17.8313L21.2252 20.9667C21.3163 20.9973 21.4129 21.0076 21.5083 20.9969C21.6037 20.9862 21.6957 20.9548 21.7777 20.9049C21.8597 20.855 21.9299 20.7877 21.9832 20.7078C22.0365 20.628 22.0717 20.5374 22.0863 20.4425L24.4928 4.25351C24.5106 4.13367 24.4949 4.01123 24.4475 3.89974C24.4001 3.78824 24.3228 3.69202 24.2241 3.6217Z" fill="white"/>
</svg>
