<svg width="21" height="21" viewBox="0 0 21 21" fill="none" xmlns="http://www.w3.org/2000/svg">
<path d="M7.65487 15.412V19.4706C7.65554 19.6086 7.69959 19.7428 7.78079 19.8543C7.86198 19.9658 7.97621 20.0489 8.10728 20.0919C8.23835 20.1349 8.37961 20.1355 8.51107 20.0938C8.64253 20.052 8.75751 19.9699 8.83973 19.8592L11.2138 16.6284L7.65487 15.412ZM20.7242 0.121701C20.6256 0.0514792 20.5095 0.00989911 20.3887 0.00155945C20.2679 -0.00678022 20.1472 0.0184456 20.0399 0.0744469L0.350571 10.3566C0.237285 10.4165 0.143944 10.5082 0.0820011 10.6203C0.0200586 10.7325 -0.0077894 10.8603 0.00187464 10.9881C0.0115387 11.1159 0.0582943 11.238 0.136404 11.3396C0.214513 11.4412 0.320577 11.5177 0.44158 11.5599L5.91521 13.4308L17.5722 3.46364L8.55183 14.3313L17.7253 17.4667C17.8163 17.4973 17.9129 17.5076 18.0084 17.4969C18.1038 17.4862 18.1958 17.4548 18.2778 17.4049C18.3598 17.355 18.4299 17.2877 18.4832 17.2078C18.5365 17.128 18.5717 17.0374 18.5864 16.9425L20.9929 0.75351C21.0107 0.633667 20.995 0.511233 20.9476 0.399735C20.9002 0.288237 20.8229 0.192015 20.7242 0.121701Z" fill="#0D80E1"/>
</svg>
