<svg width="24" height="24" viewBox="0 0 24 24" fill="none" xmlns="http://www.w3.org/2000/svg">
<path d="M9.5827 0H4.13231V3.32363L9.5827 2.41523V0ZM21.5818 22.592V6.85664H12.7031V22.592H11.2969V3.55523L2.41819 5.03499V22.592H0V23.9982H24V22.592H21.5818ZM18.1098 8.87869H19.6035V10.2849H18.1098V8.87869ZM18.1098 12.307H19.6035V13.7133H18.1098V12.307ZM18.1098 15.7353H19.6035V17.1416H18.1098V15.7353ZM18.1098 19.1637H19.6035V20.5699H18.1098V19.1637ZM14.6815 8.87869H16.1752V10.2849H14.6815V8.87869ZM14.6815 12.307H16.1752V13.7133H14.6815V12.307ZM14.6815 15.7353H16.1752V17.1416H14.6815V15.7353ZM14.6815 19.1637H16.1752V20.5699H14.6815V19.1637ZM7.82484 5.45039H9.31852V6.85664H7.82484V5.45039ZM7.82484 8.87869H9.31852V10.2849H7.82484V8.87869ZM7.82484 12.307H9.31852V13.7133H7.82484V12.307ZM7.82484 15.7353H9.31852V17.1416H7.82484V15.7353ZM4.39655 8.87869H5.89022V10.2849H4.39655V8.87869ZM4.39655 12.307H5.89022V13.7133H4.39655V12.307ZM4.39655 15.7353H5.89022V17.1416H4.39655V15.7353ZM4.44023 19.1637H9.27483V22.592H7.86858V20.5699H5.84648V22.592H4.44023V19.1637Z" fill="#0D80E1"/>
</svg>
