<svg width="24" height="24" viewBox="0 0 24 24" fill="none" xmlns="http://www.w3.org/2000/svg">
<path d="M12.7889 20.049C12.4224 19.6213 12.2443 19.0763 12.2875 18.5146C12.3307 17.9528 12.5901 17.4415 13.0178 17.0748L14.6135 15.7072C14.0529 15.5486 13.4731 15.4684 12.8906 15.4688H12.6562V15.9375C12.6562 17.6175 11.2894 18.9844 9.60937 18.9844C7.92932 18.9844 6.5625 17.6175 6.5625 15.9375V15.4688H6.32812C2.8388 15.4688 0 18.3075 0 21.7969V23.2969C0 23.6852 0.314812 24 0.703125 24H3.75V20.8594C3.75 20.4711 4.06481 20.1562 4.45312 20.1562C4.84143 20.1562 5.15625 20.4711 5.15625 20.8594V24H13.4531V20.5662C13.1992 20.4402 12.9733 20.2643 12.7889 20.049Z" fill="white"/>
<path d="M23.7544 18.1425L19.3013 14.3255C19.1738 14.2163 19.0115 14.1563 18.8437 14.1563C18.6759 14.1563 18.5136 14.2163 18.3861 14.3255L13.933 18.1425C13.6382 18.3952 13.604 18.8391 13.8568 19.1339C14.1095 19.4288 14.5534 19.4629 14.8482 19.2102L14.8593 19.2006V24H18.1406V21.4417C18.1406 21.0631 18.4315 20.7373 18.8097 20.7196C19.2135 20.7006 19.5468 21.0223 19.5468 21.4219V24H22.1249C22.5132 24 22.8281 23.6852 22.8281 23.2969V19.2006L22.8392 19.2102C22.9664 19.3196 23.1287 19.3796 23.2965 19.3794C23.4946 19.3794 23.6916 19.2961 23.8307 19.1339C24.0834 18.8391 24.0492 18.3952 23.7544 18.1425ZM19.3124 19.3125H18.3749C17.9866 19.3125 17.6718 18.9977 17.6718 18.6094C17.6718 18.2211 17.9866 17.9062 18.3749 17.9062H19.3124C19.7008 17.9062 20.0156 18.2211 20.0156 18.6094C20.0156 18.9977 19.7008 19.3125 19.3124 19.3125ZM8.35152 4.29295C8.46833 4.05937 8.64786 3.86294 8.87002 3.72565C9.09217 3.58835 9.34817 3.51564 9.60932 3.51564C9.87047 3.51564 10.1265 3.58835 10.3486 3.72565C10.5708 3.86294 10.7503 4.05937 10.8671 4.29295C11.2056 4.97001 11.8862 5.39062 12.6432 5.39062H16.4468C16.1475 4.13259 15.5045 2.9789 14.5655 2.04487C13.2396 0.726234 11.4794 0 9.60932 0C7.73919 0 5.97909 0.726234 4.65323 2.04487C3.71409 2.9789 3.0712 4.13259 2.7719 5.39062H6.57552C7.33246 5.39062 8.01299 4.97001 8.35152 4.29295Z" fill="white"/>
<path d="M14.5312 9.375V6.79687H12.6432C12.0132 6.79687 11.3958 6.62146 10.8599 6.2903C10.3241 5.95913 9.89107 5.48529 9.60937 4.92188C9.32766 5.48529 8.89463 5.95913 8.3588 6.2903C7.82296 6.62146 7.20549 6.79687 6.57557 6.79687H4.6875V9.375C4.6875 12.0933 6.89109 14.2969 9.60937 14.2969C12.3276 14.2969 14.5312 12.0933 14.5312 9.375ZM11.2784 11.7301C10.8323 12.1762 10.2396 12.4219 9.60937 12.4219C8.97913 12.4219 8.3864 12.1762 7.94034 11.7301C7.66574 11.4555 7.66574 11.0103 7.94034 10.7357C8.21488 10.4612 8.6601 10.4612 8.9347 10.7357C9.11521 10.9162 9.35479 11.0156 9.60942 11.0156C9.86404 11.0156 10.1036 10.9162 10.2841 10.7357C10.5587 10.4612 11.0039 10.4612 11.2785 10.7357C11.553 11.0103 11.553 11.4555 11.2784 11.7301ZM15.9375 9.60937C16.7141 9.60937 17.3437 8.97975 17.3437 8.20312C17.3437 7.4265 16.7141 6.79687 15.9375 6.79687V9.60937ZM3.28125 9.60937V6.79687C2.50462 6.79687 1.875 7.42645 1.875 8.20312C1.875 8.97979 2.50462 9.60937 3.28125 9.60937ZM7.96874 15.487V15.9375C7.96874 16.8421 8.70473 17.5781 9.60937 17.5781C10.514 17.5781 11.25 16.8421 11.25 15.9375V15.487C10.7265 15.6277 10.1766 15.7031 9.60937 15.7031C9.04209 15.7031 8.4922 15.6277 7.96874 15.487Z" fill="white"/>
</svg>
