<svg width="24" height="22" viewBox="0 0 24 22" fill="none" xmlns="http://www.w3.org/2000/svg">
<path d="M3.27273 5.45455C3.27273 4.00791 3.8474 2.62053 4.87033 1.5976C5.89325 0.574674 7.28064 0 8.72727 0C10.1739 0 11.5613 0.574674 12.5842 1.5976C13.6071 2.62053 14.1818 4.00791 14.1818 5.45455C14.1818 6.90118 13.6071 8.28857 12.5842 9.31149C11.5613 10.3344 10.1739 10.9091 8.72727 10.9091C7.28064 10.9091 5.89325 10.3344 4.87033 9.31149C3.8474 8.28857 3.27273 6.90118 3.27273 5.45455ZM14.8909 9.96218C14.6116 10.344 14.7993 10.9091 15.2727 10.9091C16.7194 10.9091 18.1067 10.3344 19.1297 9.31149C20.1526 8.28857 20.7273 6.90118 20.7273 5.45455C20.7273 4.00791 20.1526 2.62053 19.1297 1.5976C18.1067 0.574674 16.7194 0 15.2727 0C14.7993 0 14.6116 0.564 14.8909 0.946909C15.8182 2.21018 16.3636 3.768 16.3636 5.45455C16.3636 7.14109 15.8182 8.69891 14.8909 9.96218ZM20.7273 21.8182C20.4379 21.8182 20.1605 21.7033 19.9559 21.4987C19.7513 21.2941 19.6364 21.0166 19.6364 20.7273V18.5455C19.6364 16.9091 19.0975 15.3044 18.1309 13.9964C17.8702 13.6429 18.1058 13.0909 18.5455 13.0909C19.2618 13.0909 19.971 13.232 20.6328 13.5061C21.2946 13.7802 21.8959 14.182 22.4024 14.6885C22.9089 15.195 23.3107 15.7963 23.5848 16.4581C23.8589 17.1199 24 17.8292 24 18.5455V20.7273C24 21.0166 23.8851 21.2941 23.6805 21.4987C23.4759 21.7033 23.1984 21.8182 22.9091 21.8182H20.7273ZM1.59709 14.688C2.10369 14.1815 2.7051 13.7798 3.36697 13.5058C4.02883 13.2318 4.73819 13.0908 5.45455 13.0909H12C13.4466 13.0909 14.834 13.6656 15.8569 14.6885C16.8799 15.7114 17.4545 17.0988 17.4545 18.5455V20.7273C17.4545 21.0166 17.3396 21.2941 17.135 21.4987C16.9304 21.7033 16.653 21.8182 16.3636 21.8182H1.09091C0.801582 21.8182 0.524105 21.7033 0.31952 21.4987C0.114935 21.2941 0 21.0166 0 20.7273V18.5455C1.95984e-05 17.0991 0.574494 15.712 1.59709 14.6891V14.688Z" fill="white"/>
</svg>
