<svg width="23" height="26" viewBox="0 0 23 26" fill="none" xmlns="http://www.w3.org/2000/svg">
<path d="M20.343 8.05052H17.0795C15.7598 8.05052 14.6861 6.9768 14.6861 5.65704V2.39267C14.6861 1.06905 13.6148 0 12.2934 0H8.9207C7.58626 0 6.52722 1.08291 6.52722 2.39348V17.0794C6.52722 18.4139 7.61013 19.4729 8.9207 19.4729H20.3431C21.6806 19.4729 22.7366 18.3867 22.7366 17.0794V10.444C22.7366 9.12424 21.6629 8.05052 20.343 8.05052ZM17.7133 10.9749L14.4498 15.8702C14.1619 16.3188 13.47 16.3186 13.1822 15.8702L11.5504 13.4225C11.317 13.0725 11.4116 12.5996 11.7617 12.3662C12.1116 12.1328 12.5846 12.2274 12.818 12.5775L13.816 14.0745L16.4457 10.1298C16.6791 9.77978 17.152 9.68522 17.502 9.91851C17.8522 10.1519 17.9467 10.6249 17.7133 10.9749Z" fill="white"/>
<path d="M1.74012 20.3431V6.6189C0.74999 6.90068 0 7.80606 0 8.92066V23.6066C0 24.9264 1.07372 26.0001 2.39348 26.0001H13.8159C14.9092 26.0001 15.8329 25.2631 16.118 24.26H5.65704C3.49726 24.26 1.74012 22.5029 1.74012 20.3431Z" fill="white"/>
<path d="M5.00368 17.0794V3.35518C4.01355 3.63702 3.26361 4.5425 3.26361 5.65695V20.3429C3.26361 21.6627 4.33733 22.7364 5.65709 22.7364H17.0795C18.1728 22.7364 19.0965 21.9994 19.3816 20.9963H8.92065C6.76087 20.9963 5.00368 19.2392 5.00368 17.0794ZM16.2095 5.65695C16.2095 6.13668 16.5998 6.52699 17.0795 6.52699H20.3431C21.0574 6.52612 21.7582 6.72184 22.3688 7.09269C22.1358 6.5405 21.7963 6.03299 21.3598 5.59647L17.14 1.37669C16.7037 0.940277 16.1963 0.600905 15.6443 0.36792C16.0148 0.97819 16.2104 1.67862 16.2095 2.39257V5.65695H16.2095Z" fill="white"/>
</svg>
