<svg width="28" height="24" viewBox="0 0 28 24" fill="none" xmlns="http://www.w3.org/2000/svg">
<path d="M13.75 5C17.2 5 20 7.8 20 11.25C20 12.0625 19.8375 12.825 19.55 13.5375L23.2 17.1875C25.0875 15.6125 26.575 13.575 27.4875 11.25C25.325 5.7625 19.9875 1.875 13.7375 1.875C11.9875 1.875 10.3125 2.1875 8.7625 2.75L11.4625 5.45C12.175 5.1625 12.9375 5 13.75 5ZM1.25 1.5875L4.1 4.4375L4.675 5.0125C2.6 6.625 0.975 8.775 0 11.25C2.1625 16.7375 7.5 20.625 13.75 20.625C15.6875 20.625 17.5375 20.25 19.225 19.575L19.75 20.1L23.4125 23.75L25 22.1625L2.8375 0L1.25 1.5875ZM8.1625 8.5L10.1 10.4375C10.0375 10.7 10 10.975 10 11.25C10 13.325 11.675 15 13.75 15C14.025 15 14.3 14.9625 14.5625 14.9L16.5 16.8375C15.6625 17.25 14.7375 17.5 13.75 17.5C10.3 17.5 7.5 14.7 7.5 11.25C7.5 10.2625 7.75 9.3375 8.1625 8.5ZM13.55 7.525L17.4875 11.4625L17.5125 11.2625C17.5125 9.1875 15.8375 7.5125 13.7625 7.5125L13.55 7.525Z" fill="#B1B1B1"/>
</svg>
