<svg width="20" height="27" viewBox="0 0 20 27" fill="none" xmlns="http://www.w3.org/2000/svg">
<path d="M17.5 8.75H16.25V6.25C16.25 2.8 13.45 0 10 0C6.55 0 3.75 2.8 3.75 6.25V8.75H2.5C1.125 8.75 0 9.875 0 11.25V23.75C0 25.125 1.125 26.25 2.5 26.25H17.5C18.875 26.25 20 25.125 20 23.75V11.25C20 9.875 18.875 8.75 17.5 8.75ZM10 20C8.625 20 7.5 18.875 7.5 17.5C7.5 16.125 8.625 15 10 15C11.375 15 12.5 16.125 12.5 17.5C12.5 18.875 11.375 20 10 20ZM13.875 8.75H6.125V6.25C6.125 4.1125 7.8625 2.375 10 2.375C12.1375 2.375 13.875 4.1125 13.875 6.25V8.75Z" fill="#0D80E1"/>
</svg>
