<svg width="12" height="20" viewBox="0 0 12 20" fill="none" xmlns="http://www.w3.org/2000/svg">
<path d="M1.01771 8.8902H10.3487C10.7264 8.8902 11.0728 8.68098 11.249 8.34732C11.3354 8.18336 11.3754 7.99893 11.3647 7.81392C11.354 7.6289 11.2931 7.4503 11.1884 7.29736L6.46541 0.396226C6.38201 0.274563 6.27034 0.174952 6.13998 0.105939C6.00961 0.0369271 5.86445 0.000575457 5.71695 3.84448e-06C5.5695 -0.00042479 5.42416 0.0349952 5.29344 0.103213C5.16271 0.171431 5.05053 0.270403 4.96655 0.391604L0.18127 7.29286C0.0754478 7.44554 0.0134334 7.62427 0.00194751 7.80968C-0.00953838 7.99509 0.0299426 8.18011 0.116111 8.34468C0.202349 8.50919 0.331939 8.64698 0.490857 8.74314C0.649775 8.83929 0.831965 8.89015 1.01771 8.8902ZM10.3487 11.1097H1.01771C0.831964 11.1098 0.649776 11.1607 0.490861 11.2568C0.331945 11.353 0.202354 11.4908 0.116111 11.6553C0.0299541 11.8198 -0.0095207 12.0048 0.00196514 12.1902C0.013451 12.3756 0.0754591 12.5544 0.18127 12.707L4.96655 19.6083C5.05054 19.7295 5.16272 19.8285 5.29344 19.8967C5.42416 19.9649 5.5695 20.0004 5.71695 20C5.86445 19.9994 6.00961 19.963 6.13998 19.894C6.27034 19.825 6.38201 19.7254 6.46541 19.6037L11.1884 12.7025C11.2931 12.5495 11.354 12.3709 11.3647 12.1859C11.3754 12.0009 11.3354 11.8165 11.249 11.6525C11.1625 11.4887 11.0329 11.3516 10.8743 11.256C10.7157 11.1603 10.534 11.1098 10.3487 11.1097Z" fill="#444444"/>
</svg>
