<svg width="13" height="18" viewBox="0 0 13 18" fill="none" xmlns="http://www.w3.org/2000/svg">
<path d="M10.2915 13.8025V7.7925C10.2915 7.2425 9.84153 6.7925 9.29153 6.7925C8.74153 6.7925 8.29153 7.2425 8.29153 7.7925V13.8025H6.50153C6.05153 13.8025 5.83153 14.3425 6.15153 14.6525L8.94153 17.4325C9.14153 17.6225 9.45153 17.6225 9.65153 17.4325L12.4415 14.6525C12.7615 14.3425 12.5315 13.8025 12.0915 13.8025H10.2915ZM2.94153 0.1425L0.151534 2.9325C-0.168466 3.2425 0.0515344 3.7825 0.501534 3.7825H2.29153V9.7925C2.29153 10.3425 2.74153 10.7925 3.29153 10.7925C3.84153 10.7925 4.29153 10.3425 4.29153 9.7925V3.7825H6.08153C6.53153 3.7825 6.75153 3.2425 6.43153 2.9325L3.64153 0.1425C3.45153 -0.0475 3.13153 -0.0475 2.94153 0.1425Z" fill="black"/>
</svg>
