<svg width="52" height="52" viewBox="0 0 52 52" fill="none" xmlns="http://www.w3.org/2000/svg">
<path d="M20.7625 0H8.95334V7.20119L20.7625 5.23301V0ZM46.7606 48.9493V14.8561H27.5234V48.9493H24.4766V7.70301L5.23941 10.9091V48.9493H0V51.9961H52V48.9493H46.7606ZM39.2379 19.2372H42.4741V22.284H39.2379V19.2372ZM39.2379 26.6652H42.4741V29.7121H39.2379V26.6652ZM39.2379 34.0932H42.4741V37.1401H39.2379V34.0932ZM39.2379 41.5213H42.4741V44.5682H39.2379V41.5213ZM31.8099 19.2372H35.0462V22.284H31.8099V19.2372ZM31.8099 26.6652H35.0462V29.7121H31.8099V26.6652ZM31.8099 34.0932H35.0462V37.1401H31.8099V34.0932ZM31.8099 41.5213H35.0462V44.5682H31.8099V41.5213ZM16.9538 11.8092H20.1901V14.8561H16.9538V11.8092ZM16.9538 19.2372H20.1901V22.284H16.9538V19.2372ZM16.9538 26.6652H20.1901V29.7121H16.9538V26.6652ZM16.9538 34.0932H20.1901V37.1401H16.9538V34.0932ZM9.52585 19.2372H12.7621V22.284H9.52585V19.2372ZM9.52585 26.6652H12.7621V29.7121H9.52585V26.6652ZM9.52585 34.0932H12.7621V37.1401H9.52585V34.0932ZM9.62051 41.5213H20.0955V48.9493H17.0486V44.5682H12.6674V48.9493H9.62051V41.5213Z" fill="white"/>
</svg>
