<svg width="52" height="52" viewBox="0 0 52 52" fill="none" xmlns="http://www.w3.org/2000/svg">
<path d="M27.7094 43.4394C26.9152 42.5129 26.5293 41.3321 26.6229 40.115C26.7166 38.8978 27.2785 37.7899 28.2054 36.9955L31.6626 34.0322C30.4481 33.6886 29.1919 33.5148 27.9297 33.5156H27.4219V34.5313C27.4219 38.1714 24.4604 41.1328 20.8203 41.1328C17.1802 41.1328 14.2188 38.1714 14.2188 34.5313V33.5156H13.711C6.15074 33.5156 0 39.6664 0 47.2266V50.4766C0 51.3179 0.682095 52 1.52344 52H8.12501V45.1953C8.12501 44.354 8.80711 43.6719 9.64845 43.6719C10.4898 43.6719 11.1719 44.354 11.1719 45.1953V52H29.1485V44.5602C28.5983 44.2871 28.1089 43.906 27.7094 43.4394Z" fill="white"/>
<path d="M51.468 39.3088L41.8195 31.0387C41.5434 30.802 41.1918 30.672 40.8281 30.672C40.4645 30.672 40.1128 30.802 39.8367 31.0387L30.1883 39.3088C29.5494 39.8564 29.4754 40.818 30.023 41.4569C30.5707 42.0959 31.5325 42.1697 32.1711 41.6221L32.1952 41.6014V52.0001H39.3046V46.4572C39.3046 45.6369 39.935 44.931 40.7544 44.8925C41.6293 44.8513 42.3515 45.5484 42.3515 46.4141V52.0001H47.9375C48.7788 52.0001 49.4609 51.318 49.4609 50.4766V41.6014L49.4851 41.6221C49.7607 41.8591 50.1123 41.9893 50.4758 41.9888C50.9051 41.9888 51.3319 41.8084 51.6332 41.4569C52.1807 40.8181 52.1068 39.8564 51.468 39.3088ZM41.8437 41.8438H39.8125C38.9711 41.8438 38.289 41.1617 38.289 40.3204C38.289 39.479 38.9711 38.7969 39.8125 38.7969H41.8437C42.685 38.7969 43.3671 39.479 43.3671 40.3204C43.3671 41.1617 42.685 41.8438 41.8437 41.8438ZM18.095 9.30141C18.3481 8.79533 18.7371 8.36971 19.2184 8.07225C19.6997 7.77478 20.2544 7.61723 20.8202 7.61723C21.3861 7.61723 21.9407 7.77478 22.4221 8.07225C22.9034 8.36971 23.2924 8.79533 23.5455 9.30141C24.2789 10.7684 25.7534 11.6797 27.3936 11.6797H35.6348C34.9863 8.95397 33.5933 6.45431 31.5586 4.43057C28.6858 1.57351 24.8722 0 20.8202 0C16.7683 0 12.9547 1.57351 10.082 4.43057C8.04721 6.45431 6.65428 8.95397 6.0058 11.6797H14.247C15.887 11.6797 17.3615 10.7684 18.095 9.30141Z" fill="white"/>
<path d="M31.4845 20.3125V14.7266H27.3936C26.0288 14.7266 24.691 14.3465 23.53 13.629C22.369 12.9114 21.4308 11.8848 20.8204 10.6641C20.21 11.8848 19.2718 12.9114 18.1108 13.629C16.9498 14.3465 15.612 14.7266 14.2472 14.7266H10.1563V20.3125C10.1563 26.2021 14.9308 30.9766 20.8204 30.9766C26.71 30.9766 31.4845 26.2021 31.4845 20.3125ZM24.4366 25.4152C23.4702 26.3818 22.1859 26.9141 20.8204 26.9141C19.4549 26.9141 18.1706 26.3818 17.2042 25.4152C16.6092 24.8204 16.6092 23.8557 17.2042 23.2608C17.799 22.6659 18.7637 22.6659 19.3586 23.2608C19.7497 23.6518 20.2688 23.8672 20.8205 23.8672C21.3722 23.8672 21.8913 23.6518 22.2824 23.2608C22.8772 22.6659 23.8419 22.6659 24.4368 23.2608C25.0317 23.8557 25.0317 24.8204 24.4366 25.4152ZM34.5314 20.8203C36.214 20.8203 37.5782 19.4561 37.5782 17.7734C37.5782 16.0908 36.214 14.7266 34.5314 14.7266V20.8203ZM7.10944 20.8203V14.7266C5.42675 14.7266 4.06256 16.0907 4.06256 17.7734C4.06256 19.4562 5.42675 20.8203 7.10944 20.8203ZM17.2657 33.5553V34.5313C17.2657 36.4913 18.8603 38.086 20.8204 38.086C22.7805 38.086 24.3751 36.4913 24.3751 34.5313V33.5553C23.2409 33.86 22.0495 34.0235 20.8204 34.0235C19.5913 34.0235 18.3999 33.86 17.2657 33.5553Z" fill="white"/>
</svg>
