<svg width="52" height="52" viewBox="0 0 52 52" fill="none" xmlns="http://www.w3.org/2000/svg">
<path d="M22.0666 51.0154C23.2412 52.1167 24.9603 52.3132 26.3487 51.5077L37.3017 45.1526C37.8345 44.8434 38.1921 44.3401 38.3087 43.7353C38.4253 43.1305 38.2804 42.5301 37.9006 42.0451L36.6575 40.4572C35.5268 41.3368 34.1079 41.8625 32.5678 41.8625H29.7705L27.4331 43.7286C26.5112 44.511 25.3304 44.921 24.1219 44.8784C22.9035 44.8378 21.7449 44.3402 20.8765 43.4845C19.9454 42.5687 19.429 41.345 19.4226 40.0389C19.4163 38.7328 19.9208 37.5041 20.8431 36.5794L20.9148 36.5119L26.7668 31.3569H6.85236V40.2645L10.5258 40.2676L22.0666 51.0154Z" fill="white"/>
<path d="M31.3761 31.357L22.971 38.7609C22.6456 39.1006 22.4656 39.5538 22.4693 40.0242C22.4697 40.2642 22.518 40.5018 22.6113 40.7229C22.7046 40.9441 22.8411 41.1444 23.0127 41.3123C23.6918 41.9801 24.749 42.0162 25.4721 41.3966L25.513 41.3626L28.7034 38.8158H32.5676C34.5682 38.8158 36.1959 37.1882 36.1959 35.1875V34.4891H39.2427V35.1875C39.2427 36.1971 39.0162 37.1544 38.6132 38.0131L40.2995 40.167C40.3518 40.234 40.4024 40.3024 40.4513 40.372H45.1478V31.357H31.3761ZM0 31.357H3.80545V43.2049H0V31.357ZM48.1946 31.357H52V43.2049H48.1946V31.357ZM15.0425 15.056V28.3101H21.2114V18.8423H30.7886V28.3101H36.9575V15.0512L26.0671 9.30811L15.0425 15.056Z" fill="white"/>
<path d="M24.2581 21.8892H27.7415V28.3101H24.2581V21.8892ZM19.6849 4.03731V0H15.0423V11.6199L26.075 5.86777L36.9573 11.6066V6.44292L26.0669 0.699969L19.6849 4.03731Z" fill="white"/>
</svg>
