<svg width="54" height="54" viewBox="0 0 54 54" fill="none" xmlns="http://www.w3.org/2000/svg">
<path d="M25.737 27.6202C33.3641 27.6202 39.5471 21.4372 39.5471 13.8101C39.5471 6.18299 33.3641 0 25.737 0C18.1099 0 11.9269 6.18299 11.9269 13.8101C11.9269 21.4372 18.1099 27.6202 25.737 27.6202Z" fill="white"/>
<path fill-rule="evenodd" clip-rule="evenodd" d="M47.4616 31.497L31.482 47.4766C31.1291 47.8295 30.9308 48.3082 30.9308 48.8074C30.9308 49.3065 31.1291 49.7852 31.482 50.1382C31.835 50.4911 32.3137 50.6894 32.8128 50.6894C33.312 50.6894 33.7907 50.4911 34.1436 50.1382L50.1231 34.1586C50.4761 33.8057 50.6744 33.327 50.6744 32.8278C50.6744 32.3287 50.4761 31.85 50.1231 31.497C49.7702 31.1441 49.2915 30.9458 48.7923 30.9458C48.2932 30.9458 47.8145 31.1441 47.4616 31.497Z" fill="white"/>
<path fill-rule="evenodd" clip-rule="evenodd" d="M40.8026 27.6353C33.5259 27.6353 27.6202 33.541 27.6202 40.8176C27.6202 48.0943 33.5259 54 40.8026 54C48.0793 54 53.985 48.0943 53.985 40.8176C53.985 33.541 48.0793 27.6353 40.8026 27.6353ZM40.8026 31.4016C46.0002 31.4016 50.2186 35.62 50.2186 40.8176C50.2186 46.0152 46.0002 50.2336 40.8026 50.2336C35.605 50.2336 31.3866 46.0152 31.3866 40.8176C31.3866 35.62 35.605 31.4016 40.8026 31.4016Z" fill="white"/>
<path fill-rule="evenodd" clip-rule="evenodd" d="M29.3151 51.5042C26.6081 48.6046 25.1046 44.7844 25.1093 40.8177C25.1093 36.5918 26.7841 32.7526 29.5059 29.9303C28.2756 29.8349 27.0176 29.7847 25.737 29.7847C17.3957 29.7847 10.0111 31.8712 5.42612 34.9974C1.9284 37.3827 6.67072e-06 40.4134 6.67072e-06 43.5948V47.2356C-0.000985669 47.7964 0.108747 48.352 0.322912 48.8703C0.537076 49.3886 0.851459 49.8596 1.24803 50.2562C1.6446 50.6527 2.11556 50.9671 2.6339 51.1813C3.15223 51.3954 3.70775 51.5052 4.26858 51.5042H29.3151Z" fill="white"/>
</svg>
