<svg width="48" height="49" viewBox="0 0 48 49" fill="none" xmlns="http://www.w3.org/2000/svg">
<path d="M32.8715 0H15.155C14.4613 0 13.7676 0.293495 13.2873 0.773761L0.773761 13.2873C0.293495 13.7676 0 14.4613 0 15.155V32.8448C0 33.5652 0.293495 34.2323 0.773761 34.7392L13.2607 47.2261C13.7676 47.7331 14.4613 48.0266 15.155 48.0266H32.8448C33.5652 48.0266 34.2323 47.7331 34.7392 47.2528L47.2261 34.7659C47.4746 34.5175 47.671 34.222 47.8039 33.8967C47.9367 33.5714 48.0034 33.2229 47.9999 32.8715V15.155C47.9999 14.4346 47.7064 13.7676 47.2261 13.2607L34.7392 0.773761C34.2589 0.293495 33.5652 0 32.8715 0ZM24.0133 38.1544C22.0922 38.1544 20.5447 36.6069 20.5447 34.6858C20.5447 32.7648 22.0922 31.2173 24.0133 31.2173C25.9343 31.2173 27.4819 32.7648 27.4819 34.6858C27.4819 36.6069 25.9343 38.1544 24.0133 38.1544ZM24.0133 26.6814C22.5458 26.6814 21.3451 25.4808 21.3451 24.0133V13.3407C21.3451 11.8732 22.5458 10.6726 24.0133 10.6726C25.4808 10.6726 26.6814 11.8732 26.6814 13.3407V24.0133C26.6814 25.4808 25.4808 26.6814 24.0133 26.6814Z" fill="white"/>
</svg>
