<svg width="48" height="50" viewBox="0 0 48 50" fill="none" xmlns="http://www.w3.org/2000/svg">
<path d="M22.3308 0L8.68421 22.3308H35.9774L22.3308 0ZM35.9774 49.6241C37.4437 49.6241 38.8956 49.3353 40.2503 48.7741C41.6049 48.213 42.8358 47.3906 43.8726 46.3538C44.9094 45.317 45.7318 44.0861 46.2929 42.7315C46.8541 41.3768 47.1429 39.9249 47.1429 38.4586C47.1429 36.9924 46.8541 35.5405 46.2929 34.1858C45.7318 32.8312 44.9094 31.6003 43.8726 30.5635C42.8358 29.5267 41.6049 28.7043 40.2503 28.1432C38.8956 27.582 37.4437 27.2932 35.9774 27.2932C33.0162 27.2932 30.1762 28.4696 28.0823 30.5635C25.9884 32.6574 24.812 35.4974 24.812 38.4586C24.812 41.4199 25.9884 44.2599 28.0823 46.3538C30.1762 48.4477 33.0162 49.6241 35.9774 49.6241ZM0 28.5338H19.8496V48.3835H0V28.5338Z" fill="white"/>
</svg>
