<svg width="55" height="50" viewBox="0 0 55 50" fill="none" xmlns="http://www.w3.org/2000/svg">
<path d="M7.5 12.5C7.5 9.18479 8.81696 6.00537 11.1612 3.66117C13.5054 1.31696 16.6848 0 20 0C23.3152 0 26.4946 1.31696 28.8388 3.66117C31.183 6.00537 32.5 9.18479 32.5 12.5C32.5 15.8152 31.183 18.9946 28.8388 21.3388C26.4946 23.683 23.3152 25 20 25C16.6848 25 13.5054 23.683 11.1612 21.3388C8.81696 18.9946 7.5 15.8152 7.5 12.5ZM34.125 22.83C33.485 23.705 33.915 25 35 25C38.3152 25 41.4946 23.683 43.8388 21.3388C46.183 18.9946 47.5 15.8152 47.5 12.5C47.5 9.18479 46.183 6.00537 43.8388 3.66117C41.4946 1.31696 38.3152 0 35 0C33.915 0 33.485 1.2925 34.125 2.17C36.25 5.065 37.5 8.635 37.5 12.5C37.5 16.365 36.25 19.935 34.125 22.83ZM47.5 50C46.837 50 46.2011 49.7366 45.7322 49.2678C45.2634 48.7989 45 48.163 45 47.5V42.5C45 38.75 43.765 35.0725 41.55 32.075C40.9525 31.265 41.4925 30 42.5 30C44.1415 30 45.767 30.3233 47.2835 30.9515C48.8001 31.5797 50.1781 32.5004 51.3388 33.6612C52.4996 34.8219 53.4203 36.1999 54.0485 37.7165C54.6767 39.233 55 40.8585 55 42.5V47.5C55 48.163 54.7366 48.7989 54.2678 49.2678C53.7989 49.7366 53.163 50 52.5 50H47.5ZM3.66 33.66C4.82097 32.4993 6.19919 31.5787 7.71596 30.9507C9.23274 30.3228 10.8584 29.9997 12.5 30H27.5C30.8152 30 33.9946 31.317 36.3388 33.6612C38.683 36.0054 40 39.1848 40 42.5V47.5C40 48.163 39.7366 48.7989 39.2678 49.2678C38.7989 49.7366 38.163 50 37.5 50H2.5C1.83696 50 1.20107 49.7366 0.732233 49.2678C0.263392 48.7989 0 48.163 0 47.5V42.5C4.49131e-05 39.1854 1.31655 36.0066 3.66 33.6625V33.66Z" fill="white"/>
</svg>
